<svg width="175" height="175" viewBox="0 0 175 175" fill="none" xmlns="http://www.w3.org/2000/svg">
<path d="M171.73 132.869C177.191 132.869 174.832 131.492 171.73 122.049C168.629 112.605 165.895 85.2739 152.581 76.874C152.581 76.874 145.297 59.5709 144.985 58.0656C143.441 50.6241 140.972 43.0276 131.173 41.5548C121.373 40.082 125.397 41.5833 120.067 45.5611C114.738 49.5389 112.714 73.4731 106.475 74.2269C100.236 74.9807 96.1281 81.5589 91.721 94.6886C89.0265 102.718 85.6853 110.361 81.7453 117.491L73.3025 132.869H167.527C167.527 132.869 166.269 132.869 171.73 132.869Z" fill="#D8B4FE"/>
<path d="M125.528 122.106L118.41 107.664C117.028 86.0367 108.191 93.0059 102.315 72.8592C102.315 72.8592 101.592 68.186 98.7655 66.3478C95.9393 64.5096 96.8186 62.791 91.4777 60.1892C86.1368 57.5874 90.3281 59.1386 84.2208 55.6483C78.1135 52.1581 73.515 73.4969 67.276 74.2512C61.037 75.0055 56.9295 81.5884 52.5227 94.7273C49.8283 102.763 46.4872 110.41 42.5474 117.546L34.105 132.934H128.325L125.528 122.106Z" fill="#A5B4FC"/>
<path d="M0 132.984C0 132.984 0.832645 129.559 9.0031 120.954C17.1735 112.35 21.6594 92.0588 30.4961 85.9944C39.3327 79.9301 44.5472 84.6769 50.126 90.3816C55.7048 96.0863 55.9441 93.4513 57.495 97.4511C59.0458 101.451 71.2963 133 71.2963 133H46.5247H0V132.984Z" fill="#7DD3FC"/>
</svg>
