<?xml version="1.0" standalone="no"?>
<!DOCTYPE svg PUBLIC "-//W3C//DTD SVG 20010904//EN"
 "http://www.w3.org/TR/2001/REC-SVG-20010904/DTD/svg10.dtd">
<svg version="1.0" xmlns="http://www.w3.org/2000/svg"
 width="700.000000pt" height="700.000000pt" viewBox="0 0 700.000000 700.000000"
 preserveAspectRatio="xMidYMid meet">
<metadata>
Created by potrace 1.14, written by Peter Selinger 2001-2017
</metadata>
<g transform="translate(0.000000,700.000000) scale(0.100000,-0.100000)"
fill="#000000" stroke="none">
<path d="M4973 5348 c-12 -7 -38 -34 -57 -59 -20 -25 -64 -71 -100 -102 -89
-79 -137 -178 -221 -462 -168 -568 -224 -675 -367 -700 -17 -3 -46 -12 -66
-21 -43 -18 -43 -19 -72 95 -30 114 -72 192 -129 238 -51 41 -72 62 -116 117
-40 50 -102 95 -210 151 -49 25 -100 56 -111 66 -41 38 -159 109 -192 115 -44
9 -84 -10 -132 -62 -58 -63 -90 -115 -244 -397 -62 -114 -107 -180 -161 -233
-44 -44 -60 -54 -111 -64 -93 -19 -162 -57 -235 -130 -66 -67 -145 -186 -194
-295 -68 -151 -86 -195 -110 -267 -15 -46 -22 -55 -34 -48 -9 4 -57 48 -107
97 -162 156 -184 174 -284 235 -201 121 -496 11 -683 -253 -77 -108 -237 -405
-237 -438 0 -6 -4 -11 -10 -11 -5 0 -10 -5 -10 -11 0 -7 -16 -46 -36 -88 -204
-428 -264 -528 -417 -695 -149 -162 -289 -348 -317 -421 l-10 -26 3472 4
c1910 3 3483 8 3496 12 37 12 37 48 2 148 -18 51 -38 106 -45 122 -40 91 -108
326 -131 449 -10 54 -80 345 -111 461 -19 72 -36 137 -38 145 -13 51 -70 214
-110 311 -104 256 -239 453 -377 554 -52 38 -58 46 -103 155 -168 405 -248
615 -271 704 -66 262 -135 388 -264 485 -61 46 -179 95 -253 106 -27 3 -59 8
-70 11 -65 13 -203 14 -224 2z"/>
</g>
</svg>
